# xmcd
#
# Track frame offsets: 
#        182
#        13505
#        37085
#        87467
#        115827
#        139162
#        159197
#        179272
#
# Disc length: 3024 seconds
#
# Revision: 3
# Processed by: cddbd v1.5.2PL0 Copyright (c) Steve Scherf et al.
# Submitted via: ExactAudioCopy v1.0b3
#
DISCID=600bce08
DTITLE=Jazz - Various Artists - Legends of the Jazz Trumpet
DYEAR=1994
DGENRE=Jazz
TTITLE0=Miles Davis - Don't Sing Me The Blues
TTITLE1=Louis Armstrong - Struttin' With Some B.B.Q.
TTITLE2=Charles Tolliver - Grand Max
TTITLE3=Donald Byrd - Hush!
TTITLE4=Howard McGhee - Shades Of Blue
TTITLE5=Bill Coleman - But Not For Me
TTITLE6=Freddie Hubbard - Minor Mishap
TTITLE7=Kenny Dorham - Osmosis
EXTD=YEAR: 1994
EXTT0=
EXTT1=
EXTT2=
EXTT3=
EXTT4=
EXTT5=
EXTT6=
EXTT7=
PLAYORDER=
